<svg width="13" height="6" viewBox="0 0 13 6" fill="none" xmlns="http://www.w3.org/2000/svg">
<rect width="13" height="6" fill="#626262"/>
<g id="Add income" clip-path="url(#clip0_174_4722)">
<rect width="430" height="1029" transform="translate(-92 -340)" fill="white"/>
<g id="Group 5469">
<path id="Ellipse 1" d="M570 193.367C399.755 934.185 421.702 466.165 230.611 466.165C39.521 466.165 -122 489.042 -122 193.367C-122 -102.308 32.9095 -342 224 -342C415.091 -342 570 -102.308 570 193.367Z" fill="#F4F4F4"/>
</g>
<g id="Group 1">
<path id="Ellipse 1_2" d="M570 -168.633C399.755 572.185 421.702 104.165 230.611 104.165C39.521 104.165 -122 127.042 -122 -168.633C-122 -464.308 32.9095 -704 224 -704C415.091 -704 570 -464.308 570 -168.633Z" fill="url(#paint0_linear_174_4722)"/>
</g>
<g id="Group 5521">
<g id="Group 5520">
<g id="Group 5494">
<g id="Rectangle 6" filter="url(#filter0_d_174_4722)">
<rect x="-71" y="-157" width="390" height="686.593" rx="20" fill="#FEFEFE"/>
</g>
</g>
</g>
</g>
<g id="Group 5603">
<g id="Group 5573">
<g id="Group 5469_2" filter="url(#filter1_d_174_4722)">
<g id="Group 5466">
<path id="Rectangle 4" d="M-31 -24.5H279C284.247 -24.5 288.5 -20.2467 288.5 -15V19C288.5 24.2467 284.247 28.5 279 28.5H-31C-36.2467 28.5 -40.5 24.2467 -40.5 19V-15C-40.5 -20.2467 -36.2467 -24.5 -31 -24.5Z" fill="white" stroke="#08979D"/>
</g>
</g>
<g id="Frame" clip-path="url(#clip1_174_4722)">
<path id="Icon ionic-md-arrow-dropdown" d="M0 0L6.5 6L13 0H0Z" fill="#08979D"/>
</g>
</g>
</g>
</g>
<defs>
<filter id="filter0_d_174_4722" x="-75" y="-161" width="398" height="694.593" filterUnits="userSpaceOnUse" color-interpolation-filters="sRGB">
<feFlood flood-opacity="0" result="BackgroundImageFix"/>
<feColorMatrix in="SourceAlpha" type="matrix" values="0 0 0 0 0 0 0 0 0 0 0 0 0 0 0 0 0 0 127 0" result="hardAlpha"/>
<feOffset/>
<feGaussianBlur stdDeviation="2"/>
<feComposite in2="hardAlpha" operator="out"/>
<feColorMatrix type="matrix" values="0 0 0 0 0 0 0 0 0 0 0 0 0 0 0 0 0 0 0.1 0"/>
<feBlend mode="normal" in2="BackgroundImageFix" result="effect1_dropShadow_174_4722"/>
<feBlend mode="normal" in="SourceGraphic" in2="effect1_dropShadow_174_4722" result="shape"/>
</filter>
<filter id="filter1_d_174_4722" x="-50" y="-33" width="350" height="74" filterUnits="userSpaceOnUse" color-interpolation-filters="sRGB">
<feFlood flood-opacity="0" result="BackgroundImageFix"/>
<feColorMatrix in="SourceAlpha" type="matrix" values="0 0 0 0 0 0 0 0 0 0 0 0 0 0 0 0 0 0 127 0" result="hardAlpha"/>
<feOffset dx="1" dy="2"/>
<feGaussianBlur stdDeviation="5"/>
<feComposite in2="hardAlpha" operator="out"/>
<feColorMatrix type="matrix" values="0 0 0 0 0 0 0 0 0 0 0 0 0 0 0 0 0 0 0.15 0"/>
<feBlend mode="normal" in2="BackgroundImageFix" result="effect1_dropShadow_174_4722"/>
<feBlend mode="normal" in="SourceGraphic" in2="effect1_dropShadow_174_4722" result="shape"/>
</filter>
<linearGradient id="paint0_linear_174_4722" x1="-169" y1="-431.5" x2="373.5" y2="199" gradientUnits="userSpaceOnUse">
<stop offset="0.425702" stop-color="#08979D"/>
<stop offset="0.9998" stop-color="#48376A" stop-opacity="0.0257815"/>
<stop offset="0.9999" stop-color="#521CC2" stop-opacity="0.0104167"/>
<stop offset="1" stop-color="#521CC2" stop-opacity="0.0104167"/>
<stop offset="1" stop-color="#521CC2" stop-opacity="0.0104167"/>
<stop offset="1" stop-color="#521CC2" stop-opacity="0.0104167"/>
<stop offset="1" stop-color="#46346E" stop-opacity="0.10767"/>
</linearGradient>
<clipPath id="clip0_174_4722">
<rect width="430" height="1029" fill="white" transform="translate(-92 -340)"/>
</clipPath>
<clipPath id="clip1_174_4722">
<rect width="13" height="6" fill="white"/>
</clipPath>
</defs>
</svg>
